# xmcd
#
# Track frame offsets:
#	182
#	14632
#	28545
#	45940
#	61230
#	75595
#	91587
#	108535
#	124890
#	138260
#
# Disc length: 2010 seconds
#
# Revision: 3
# Processed by: cddbd v1.5.2PL0 Copyright (c) Steve Scherf et al.
# Submitted via: audiograbber 1.83.01
#
DISCID=7407d80a
DTITLE=Various Artist - Country Romancin'
DYEAR=1993
DGENRE=Oldies
TTITLE0=Dwight Yoakam - The Heart That You Own
TTITLE1=Carlene Carter - One Love
TTITLE2=Tracy Lawrence - Today's Lonely Fool
TTITLE3=Holly Dunn - Heart Full Of Love
TTITLE4=Neal McCoy - Where Forever Begins
TTITLE5=Pam Tillis - One Of Those Things
TTITLE6=Little Texas - You And Forever And Me
TTITLE7=Lee Roy Parnell - What Kind Of Fool Do You Think I Am
TTITLE8=Highway 101 - Baby I'm Missing You
TTITLE9=Confederate Railroad - She Took It Like A Man
EXTD=
EXTT0=
EXTT1=
EXTT2=
EXTT3=
EXTT4=
EXTT5=
EXTT6=
EXTT7=
EXTT8=
EXTT9=
PLAYORDER=
